<?xml version="1.0" encoding="utf-8"?>
<!-- Generator: Adobe Illustrator 24.3.0, SVG Export Plug-In . SVG Version: 6.00 Build 0)  -->
<svg version="1.1" id="Layer_1" xmlns="http://www.w3.org/2000/svg" xmlns:xlink="http://www.w3.org/1999/xlink" x="0px" y="0px"
	 viewBox="0 0 215.8 51.8" style="enable-background:new 0 0 215.8 51.8;" xml:space="preserve">
<style type="text/css">
	.st0{fill:#B594BB;}
	.st1{fill:#FF5137;}
	.st2{fill:#729F36;}
	.st3{fill:#00B5C4;}
	.st4{fill:#DA3267;}
	.st5{fill:#FFD375;}
	.st6{fill:#72A037;}
	.st7{fill:#9990C1;}
</style>
<g>
	<g>
		<g>
			<path class="st0" d="M189.9,51.8L189.9,51.8c-0.4,0-0.6-0.1-0.9-0.4l-10.5-10.5c-0.5-0.5-0.5-1.4,0-1.9c0.5-0.5,1.4-0.5,1.9,0
				l9.4,9.4l8.9-8.9c0.5-0.5,1.4-0.5,1.9,0c0.5,0.5,0.5,1.4,0,1.9l-10,10C190.7,51.7,190.3,51.8,189.9,51.8z"/>
		</g>
		<g>
			<path class="st1" d="M204.1,37.6c-0.4,0-0.6-0.1-0.9-0.4c-0.5-0.5-0.5-1.4,0-1.9l9.4-9.4l-8.9-8.9c-0.5-0.5-0.5-1.4,0-1.9
				s1.4-0.5,1.9,0l9.8,9.8c0.3,0.3,0.4,0.6,0.4,0.9c0,0.3-0.1,0.6-0.4,0.9L205,37.1C204.9,37.5,204.5,37.6,204.1,37.6z"/>
		</g>
		<g>
			<path class="st2" d="M200.4,13c-0.4,0-0.6-0.1-0.9-0.4l-9.4-9.4l-8.9,8.9c-0.5,0.5-1.4,0.5-1.9,0c-0.5-0.5-0.5-1.4,0-1.9l9.8-9.8
				c0.5-0.5,1.4-0.5,1.9,0l10.5,10.5c0.5,0.5,0.5,1.4,0,1.9C201,12.9,200.7,13,200.4,13z"/>
		</g>
		<g>
			<path class="st3" d="M175.1,37c-0.4,0-0.6-0.1-0.9-0.4l-9.8-9.8c-0.3-0.3-0.4-0.6-0.4-0.9c0-0.3,0.1-0.6,0.4-0.9l10.5-10.5
				c0.5-0.5,1.4-0.5,1.9,0c0.5,0.5,0.5,1.4,0,1.9l-9.4,9.4l8.9,8.9c0.5,0.5,0.5,1.4,0,1.9C175.9,36.9,175.5,37,175.1,37z"/>
		</g>
		<g>
			<path class="st4" d="M189.9,37.5c-0.4,0-0.6-0.1-0.9-0.4l-2.9-2.9c-0.5-0.5-0.5-1.4,0-1.9c0.5-0.5,1.4-0.5,1.9,0l2,2l1.8-1.8
				c0.5-0.5,1.4-0.5,1.9,0c0.5,0.5,0.5,1.4,0,1.9l-2.7,2.7C190.6,37.4,190.3,37.5,189.9,37.5z"/>
		</g>
		<g>
			<path class="st1" d="M197.2,30.2c-0.4,0-0.6-0.1-0.9-0.4c-0.5-0.5-0.5-1.4,0-1.9l2-2l-1.8-1.8c-0.5-0.5-0.5-1.4,0-1.9
				c0.5-0.5,1.4-0.5,1.9,0l2.7,2.7c0.3,0.3,0.4,0.6,0.4,0.9c0,0.3-0.1,0.6-0.4,0.9l-2.9,2.9C197.9,30.1,197.6,30.2,197.2,30.2z"/>
		</g>
		<g>
			<path class="st3" d="M192.9,19.9c-0.4,0-0.6-0.1-0.9-0.4l-2-2l-1.8,1.8c-0.5,0.5-1.4,0.5-1.9,0c-0.5-0.5-0.5-1.4,0-1.9l2.7-2.7
				c0.5-0.5,1.4-0.5,1.9,0l2.9,2.9c0.5,0.5,0.5,1.4,0,1.9C193.6,19.8,193.3,19.9,192.9,19.9z"/>
		</g>
		<g>
			<path class="st5" d="M182.4,30c-0.4,0-0.6-0.1-0.9-0.4l-2.7-2.7c-0.3-0.3-0.4-0.6-0.4-0.9c0-0.3,0.1-0.6,0.4-0.9l2.9-2.9
				c0.5-0.5,1.4-0.5,1.9,0c0.5,0.5,0.5,1.4,0,1.9l-2,2l1.8,1.8c0.5,0.5,0.5,1.4,0,1.9C183.1,29.9,182.8,30,182.4,30z"/>
		</g>
		<g>
			<path class="st5" d="M191.7,42.5c-0.4,0-0.6-0.1-0.9-0.4c-0.5-0.5-0.5-1.4,0-1.9l13.8-13.8c0.5-0.5,1.4-0.5,1.9,0
				c0.5,0.5,0.5,1.4,0,1.9l-13.8,13.8C192.5,42.4,192.1,42.5,191.7,42.5z"/>
		</g>
		<g>
			<path class="st1" d="M174.4,25.1c-0.4,0-0.6-0.1-0.9-0.4c-0.5-0.5-0.5-1.4,0-1.9l13.8-13.8c0.5-0.5,1.4-0.5,1.9,0
				c0.5,0.5,0.5,1.4,0,1.9l-13.8,13.8C175,25,174.6,25.1,174.4,25.1z"/>
		</g>
		<g>
			<path class="st6" d="M188.2,42.5c-0.4,0-0.6-0.1-0.9-0.4l-13.8-13.8c-0.5-0.5-0.5-1.4,0-1.9s1.4-0.5,1.9,0l13.8,13.8
				c0.5,0.5,0.5,1.4,0,1.9C188.8,42.4,188.5,42.5,188.2,42.5z"/>
		</g>
		<g>
			<path class="st7" d="M205.6,25.1c-0.4,0-0.6-0.1-0.9-0.4l-13.9-13.9c-0.5-0.5-0.5-1.4,0-1.9c0.5-0.5,1.4-0.5,1.9,0l13.8,13.8
				c0.5,0.5,0.5,1.4,0,1.9C206.3,25,205.9,25.1,205.6,25.1z"/>
		</g>
	</g>
	<g>
		<path d="M28.3,36H23l-0.8-11.9c-0.3-4.2-0.4-7.7-0.4-10.2v-1.5l-5.2,20.4h-5.1L6,12.2c0,1.8,0.1,3.2,0.1,4.1
			c0,2.6-0.1,5.1-0.3,7.7L5.2,35.7H0L2.3,7.3h7l5.1,19.9l4.7-19.9h7.1L28.3,36z"/>
		<path d="M51.3,26.8H37.5c0.1,2.2,0.8,3.6,1.7,4.6c0.9,0.9,2.2,1.4,3.7,1.4c1,0,1.9-0.1,2.7-0.5c0.9-0.3,1.8-0.8,2.7-1.4l2.2,3.1
			c-2.4,1.9-5.1,2.9-8,2.9c-3.3,0-5.9-1-7.7-3.1S32,29,32,25.5c0-2.2,0.4-4.2,1.1-6c0.8-1.8,1.9-3.2,3.3-4.2c1.4-1,3.2-1.5,5.2-1.5
			c3.1,0,5.4,1,7.1,2.9c1.7,1.9,2.6,4.6,2.6,8.2C51.4,24.9,51.3,25.6,51.3,26.8z M46.1,23.1c0-3.8-1.4-5.7-4.2-5.7
			c-1.3,0-2.3,0.5-3.1,1.4c-0.8,0.9-1.1,2.4-1.3,4.6h8.5V23.1z"/>
		<path d="M70.7,16.2l-2,3.1c-1.9-1.1-3.7-1.8-5.5-1.8c-1,0-1.9,0.3-2.4,0.6c-0.6,0.4-0.9,0.9-0.9,1.5c0,0.5,0.1,0.9,0.4,1.3
			c0.3,0.4,0.6,0.6,1.4,0.9c0.6,0.3,1.7,0.6,2.8,1c2.4,0.6,4.1,1.5,5.2,2.6c1.1,1,1.7,2.6,1.7,4.3c0,2.2-0.9,3.8-2.7,5.1
			c-1.8,1.3-4,1.8-6.5,1.8c-1.8,0-3.4-0.3-4.8-0.8c-1.5-0.5-2.7-1.3-3.8-2.3l2.7-2.9c1.9,1.4,3.8,2.2,6,2.2c1.1,0,2.2-0.3,2.8-0.6
			c0.6-0.5,1-1.1,1-1.9c0-0.6-0.1-1.1-0.4-1.5c-0.3-0.4-0.8-0.6-1.4-1c-0.6-0.3-1.8-0.6-3.2-1c-2.2-0.6-3.8-1.4-4.8-2.6
			s-1.5-2.4-1.5-4.1c0-1.1,0.4-2.3,1-3.3c0.6-1,1.7-1.7,2.9-2.3c1.3-0.5,2.7-0.8,4.3-0.8C66,13.6,68.5,14.4,70.7,16.2z"/>
		<path d="M92.1,16.7c1.8,2,2.7,4.8,2.7,8.4c0,2.3-0.4,4.3-1.3,6c-0.8,1.8-2,3.1-3.6,4.1c-1.5,1-3.3,1.4-5.5,1.4
			c-3.2,0-5.7-1-7.5-3.1c-1.8-2-2.7-4.8-2.7-8.4c0-2.3,0.4-4.3,1.3-6c0.8-1.8,2-3.1,3.6-4.1c1.5-1,3.4-1.4,5.5-1.4
			C87.9,13.6,90.3,14.7,92.1,16.7z M79.9,25.1c0,2.6,0.4,4.5,1.1,5.7c0.8,1.3,1.9,1.8,3.6,1.8c1.5,0,2.7-0.6,3.6-1.9
			c0.8-1.3,1.1-3.2,1.1-5.7s-0.4-4.5-1.1-5.6c-0.8-1.3-1.9-1.8-3.4-1.8C81.5,17.6,79.9,20.2,79.9,25.1z"/>
		<path d="M101,35.2c-0.9-1-1.4-2.3-1.4-4.1V5.5l5.2-0.6v26c0,1,0.4,1.5,1.3,1.5c0.4,0,0.8-0.1,1.3-0.3l1.1,3.7
			c-1.1,0.5-2.3,0.8-3.4,0.8C103.3,36.6,101.9,36.1,101,35.2z"/>
		<path d="M129.5,26.8h-13.6c0.1,2.2,0.8,3.6,1.7,4.6c0.9,0.9,2.2,1.4,3.7,1.4c1,0,1.9-0.1,2.7-0.5c0.9-0.3,1.8-0.8,2.7-1.4l2.2,3.1
			c-2.4,1.9-5.1,2.9-8,2.9c-3.3,0-5.9-1-7.7-3.1c-1.8-2-2.7-4.8-2.7-8.3c0-2.2,0.4-4.2,1.1-6c0.8-1.8,1.9-3.2,3.3-4.2
			c1.4-1,3.2-1.5,5.2-1.5c3.1,0,5.4,1,7.1,2.9c1.7,1.9,2.6,4.6,2.6,8.2C129.6,24.9,129.6,25.6,129.5,26.8z M124.4,23.1
			c0-3.8-1.4-5.7-4.2-5.7c-1.3,0-2.3,0.5-3.1,1.4c-0.8,0.9-1.1,2.4-1.3,4.6h8.5C124.4,23.3,124.4,23.1,124.4,23.1z"/>
		<path d="M144.1,24.4l7.3,11.6h-6.1l-4.5-8.7l-4.5,8.7h-5.9l7.3-11.5l-6.5-10.3h6l3.7,7.4l3.7-7.4h5.7L144.1,24.4z"/>
	</g>
</g>
</svg>
