<?xml version="1.0" encoding="utf-8"?>
<!-- Generator: Adobe Illustrator 24.3.0, SVG Export Plug-In . SVG Version: 6.00 Build 0)  -->
<svg version="1.1" id="Layer_1" xmlns="http://www.w3.org/2000/svg" xmlns:xlink="http://www.w3.org/1999/xlink" x="0px" y="0px"
	 viewBox="0 0 512 512" enable-background="new 0 0 512 512" xml:space="preserve">
<g>
	<g>
		<path fill="#B594BB" d="M256,503.4c-3.2,0-6.5-1.2-9-3.7l-99.4-99.4c-5-5-5-13,0-17.9c5-5,13-5,17.9,0l90.5,90.5l84.8-84.8
			c5-5,13-5,17.9,0c5,5,5,13,0,17.9L265,499.7C262.5,502.2,259.2,503.4,256,503.4z"/>
	</g>
	<g>
		<path fill="#FF5137" d="M391.3,368.1c-3.2,0-6.5-1.2-9-3.7c-5-5-5-13,0-17.9l90.5-90.5L388,171.2c-5-5-5-13,0-17.9
			c5-5,13-5,17.9,0l93.7,93.7c5,5,5,13,0,17.9l-99.4,99.4C397.8,366.9,394.6,368.1,391.3,368.1z"/>
	</g>
	<g>
		<path fill="#729F36" d="M355.4,133.4c-3.2,0-6.5-1.2-9-3.7L256,39.2L171.2,124c-5,5-13,5-17.9,0c-5-5-5-13,0-17.9L247,12.3
			c2.4-2.4,5.6-3.7,9-3.7c3.4,0,6.6,1.3,9,3.7l99.4,99.4c5,5,5,13,0,17.9C361.9,132.1,358.7,133.4,355.4,133.4z"/>
	</g>
	<g>
		<path fill="#00B5C4" d="M115,362.4c-3.2,0-6.5-1.2-9-3.7L12.3,265c-5-5-5-13,0-17.9l99.4-99.4c5-5,13-5,17.9,0c5,5,5,13,0,17.9
			L39.2,256l84.8,84.8c5,5,5,13,0,17.9C121.5,361.2,118.2,362.4,115,362.4z"/>
	</g>
	<g>
		<path fill="#DA3267" d="M256,366.5c-3.4,0-6.6-1.3-9-3.7l-28.4-28.4c-5-5-5-13,0-17.9c5-5,13-5,17.9,0l19.4,19.4l17-17
			c5-5,13-5,17.9,0c5,5,5,13,0,17.9l-26,26C262.6,365.2,259.4,366.5,256,366.5z"/>
	</g>
	<g>
		<path fill="#FF5137" d="M325.4,297.1c-3.2,0-6.5-1.2-9-3.7c-5-5-5-13,0-17.9l19.4-19.4l-17-17c-5-5-5-13,0-17.9c5-5,13-5,17.9,0
			l26,26c2.4,2.4,3.7,5.6,3.7,9c0,3.4-1.3,6.6-3.7,9l-28.4,28.4C331.9,295.8,328.7,297.1,325.4,297.1z"/>
	</g>
	<g>
		<path fill="#00B5C4" d="M284.4,199.3c-3.2,0-6.5-1.2-9-3.7L256,176.1l-17,17c-5,5-13,5-17.9,0c-5-5-5-13,0-17.9l26-26
			c2.4-2.4,5.6-3.7,9-3.7c3.4,0,6.6,1.3,9,3.7l28.4,28.4c5,5,5,13,0,17.9C290.9,198,287.6,199.3,284.4,199.3z"/>
	</g>
	<g>
		<path fill="#FFD375" d="M184.2,294.7c-3.2,0-6.5-1.2-9-3.7l-26-26c-5-5-5-13,0-17.9l28.4-28.4c5-5,13-5,17.9,0c5,5,5,13,0,17.9
			L176.1,256l17,17c5,5,5,13,0,17.9C190.7,293.5,187.4,294.7,184.2,294.7z"/>
	</g>
	<g>
		<path fill="#FFD375" d="M273.2,414.5c-3.2,0-6.5-1.2-9-3.7c-5-5-5-13,0-17.9l132-132c5-5,13-5,17.9,0c5,5,5,13,0,17.9l-132,132
			C279.6,413.3,276.4,414.5,273.2,414.5z"/>
	</g>
	<g>
		<path fill="#FF5137" d="M106.9,248.3c-3.2,0-6.5-1.2-9-3.7c-5-5-5-13,0-17.9l132-132c5-5,13-5,17.9,0c5,5,5,13,0,17.9l-132,132
			C113.4,247,110.1,248.3,106.9,248.3z"/>
	</g>
	<g>
		<path fill="#72A037" d="M238.8,414.5c-3.2,0-6.5-1.2-9-3.7l-132-132c-5-5-5-13,0-17.9c5-5,13-5,17.9,0l132,132c5,5,5,13,0,17.9
			C245.3,413.3,242.1,414.5,238.8,414.5z"/>
	</g>
	<g>
		<path fill="#9990C1" d="M405.1,248.3c-3.2,0-6.5-1.2-9-3.7l-132-132c-5-5-5-13,0-17.9c5-5,13-5,17.9,0l132,132c5,5,5,13,0,17.9
			C411.6,247,408.4,248.3,405.1,248.3z"/>
	</g>
</g>
</svg>
