<?xml version="1.0" standalone="no"?>
<!DOCTYPE svg PUBLIC "-//W3C//DTD SVG 20010904//EN"
 "http://www.w3.org/TR/2001/REC-SVG-20010904/DTD/svg10.dtd">
<svg version="1.0" xmlns="http://www.w3.org/2000/svg"
 width="700.000000pt" height="700.000000pt" viewBox="0 0 700.000000 700.000000"
 preserveAspectRatio="xMidYMid meet">
<metadata>
Created by potrace 1.14, written by Peter Selinger 2001-2017
</metadata>
<g transform="translate(0.000000,700.000000) scale(0.100000,-0.100000)"
fill="#000000" stroke="none">
<path d="M3445 6875 c-31 -11 -185 -160 -711 -687 -580 -580 -674 -679 -684
-715 -24 -80 13 -162 90 -200 52 -27 96 -29 148 -8 26 11 219 197 625 603
l587 587 633 -632 c542 -541 638 -633 672 -642 55 -15 73 -14 120 8 82 37 126
123 105 204 -10 37 -88 119 -718 750 -389 390 -718 714 -732 722 -42 22 -92
26 -135 10z"/>
<path d="M3195 5745 c-17 -9 -450 -435 -962 -948 -1026 -1027 -967 -961 -942
-1061 18 -73 97 -136 169 -136 74 0 61 -13 1018 943 521 520 932 938 943 959
75 145 -83 314 -226 243z"/>
<path d="M3670 5749 c-32 -13 -78 -56 -96 -91 -18 -35 -18 -112 1 -152 8 -17
432 -448 943 -958 844 -844 931 -927 971 -938 77 -20 151 9 198 79 25 37 31
109 13 158 -16 42 -1845 1870 -1895 1894 -44 20 -96 23 -135 8z"/>
<path d="M1615 5030 c-16 -3 -39 -12 -50 -18 -11 -6 -338 -329 -727 -719 -630
-631 -708 -713 -718 -750 -25 -97 -55 -61 678 -797 498 -499 678 -673 711
-688 82 -37 176 -2 219 82 26 52 28 96 7 148 -11 26 -197 219 -603 624 l-587
588 631 632 c599 600 632 635 643 681 31 127 -80 246 -204 217z"/>
<path d="M3425 4996 c-40 -19 -431 -413 -445 -449 -29 -80 10 -186 83 -220 44
-21 118 -22 160 -1 18 9 87 70 154 137 l122 121 148 -146 c147 -145 181 -168
246 -168 63 0 149 69 167 136 25 87 14 103 -233 352 -122 123 -234 230 -249
238 -34 18 -113 18 -153 0z"/>
<path d="M5355 4941 c-48 -22 -69 -44 -90 -94 -19 -46 -19 -88 0 -135 11 -26
196 -218 603 -624 l587 -588 -632 -632 c-571 -572 -633 -637 -643 -677 -35
-133 83 -255 213 -221 37 10 122 91 750 718 390 389 715 720 724 736 20 38 20
114 0 152 -9 16 -316 329 -684 696 -687 687 -689 688 -763 688 -14 0 -43 -9
-65 -19z"/>
<path d="M2475 4044 c-44 -23 -443 -422 -466 -466 -21 -41 -25 -102 -8 -145
15 -41 396 -421 444 -444 71 -33 144 -20 197 37 46 50 61 119 38 181 -6 15
-70 88 -143 160 l-131 133 151 152 c94 95 154 164 158 181 13 50 0 124 -28
160 -48 63 -144 86 -212 51z"/>
<path d="M4402 4009 c-75 -38 -113 -120 -92 -201 10 -35 35 -67 143 -175 l131
-133 -146 -147 c-155 -158 -175 -190 -165 -265 15 -114 153 -187 253 -135 34
18 456 441 473 474 14 28 14 103 0 140 -14 37 -394 419 -441 444 -49 25 -103
24 -156 -2z"/>
<path d="M1404 3479 c-41 -12 -102 -74 -114 -118 -14 -50 -12 -70 9 -116 24
-50 1862 -1889 1904 -1905 142 -52 283 95 223 233 -22 50 -1872 1892 -1915
1906 -39 13 -64 13 -107 0z"/>
<path d="M5505 3480 c-16 -3 -39 -12 -50 -18 -11 -6 -439 -431 -952 -944 -828
-829 -932 -937 -938 -970 -25 -134 92 -245 218 -209 36 11 165 136 970 939
510 510 934 941 942 958 60 128 -55 275 -190 244z"/>
<path d="M3052 2717 c-43 -13 -98 -76 -112 -126 -23 -86 -11 -103 233 -349
122 -123 234 -230 249 -238 35 -18 121 -18 156 0 41 22 429 417 441 449 26 67
-2 167 -58 207 -39 27 -98 38 -151 27 -38 -8 -61 -25 -177 -140 l-133 -131
-148 146 c-171 169 -204 186 -300 155z"/>
<path d="M2085 1815 c-85 -30 -137 -124 -115 -207 10 -38 88 -120 718 -751
389 -390 720 -715 736 -724 38 -20 114 -20 152 0 16 9 331 319 701 689 664
666 672 673 678 720 12 81 -26 152 -98 187 -52 25 -85 26 -135 6 -26 -11 -218
-196 -629 -608 l-593 -592 -637 637 c-713 711 -675 680 -778 643z"/>
</g>
</svg>
